<?xml version="1.0" encoding="UTF-8"?>
<svg width="59px" height="115px" viewBox="0 0 59 115" version="1.1" xmlns="http://www.w3.org/2000/svg" xmlns:xlink="http://www.w3.org/1999/xlink">
    <title>アセット 1</title>
    <g id="index(take03)" stroke="none" stroke-width="1" fill="none" fill-rule="evenodd">
        <g id="tetoteto_index" transform="translate(-556.000000, -6177.000000)" fill="#FFFFFF" fill-rule="nonzero">
            <g id="Group-29" transform="translate(-5.000000, 6099.000000)">
                <g id="アセット-1" transform="translate(561.000000, 78.000000)">
                    <polygon id="Path" points="1.56202805 105 4 106.297691 3.74973031 106.871203 1.88996764 105.899149 1.45846818 106.910085 3.11111111 107.789793 2.86084142 108.377886 1.20819849 107.498177 0.578209277 109 0 108.688943"></polygon>
                    <path d="M4.13679353,108.285349 L4.13679353,108.285349 C4.32125527,107.784364 4.69899323,107.38041 5.18360039,107.16589 C5.66820756,106.951371 6.218223,106.94464 6.70783146,107.147237 C7.20512524,107.324212 7.60940894,107.698526 7.82719673,108.183624 C8.04498451,108.668722 8.05741681,109.222596 7.86161879,109.717169 L7.86161879,109.717169 C7.67730262,110.21815 7.29929644,110.621894 6.8144248,110.835665 C6.32955316,111.049437 5.7794904,111.054861 5.29058087,110.850692 C4.7944171,110.673629 4.39102338,110.300065 4.17334144,109.816069 C3.9556595,109.332072 3.94246341,108.779386 4.13679353,108.285349 L4.13679353,108.285349 Z M7.20296067,109.473943 L7.20296067,109.473943 C7.341344,109.14588 7.34213788,108.775148 7.20516086,108.446484 C7.06818384,108.117819 6.8051447,107.859316 6.47616549,107.730061 C6.14900279,107.601337 5.7838826,107.613921 5.46616381,107.764871 C5.14844501,107.91582 4.90597953,108.191903 4.79545166,108.528575 L4.79545166,108.528575 C4.65706832,108.856638 4.65627444,109.22737 4.79325146,109.556035 C4.93022848,109.884699 5.19326762,110.143202 5.52224683,110.272458 C5.84940954,110.401181 6.21452972,110.388597 6.53224852,110.237647 C6.84996732,110.086698 7.09243279,109.810615 7.20296067,109.473943 L7.20296067,109.473943 Z" id="Shape"></path>
                    <path d="M9.09136492,109.433225 L9.09136492,109.433225 C9.23565671,108.92097 9.57900862,108.489361 10.043367,108.236517 C10.5077254,107.983672 11.0536369,107.931074 11.5570002,108.09068 C12.0664517,108.224174 12.499648,108.562171 12.7559857,109.026176 C13.0123234,109.490181 13.0694977,110.03982 12.9142306,110.547446 L12.9142306,110.547446 C12.7750803,111.06486 12.4328298,111.502583 11.9665894,111.759434 C11.5003491,112.016286 10.9504758,112.070035 10.4440712,111.908258 C9.9312171,111.77419 9.49565283,111.432944 9.23975316,110.964727 C8.98385349,110.49651 8.93018609,109.942614 9.09136492,109.433225 L9.09136492,109.433225 Z M12.2310913,110.346521 L12.2310913,110.346521 C12.3426071,110.009918 12.3141003,109.642055 12.1520892,109.327047 C11.9900781,109.012039 11.7084176,108.776825 11.371512,108.675189 C11.0384198,108.574641 10.6791388,108.615146 10.3762331,108.787395 C10.0733274,108.959645 9.85284591,109.248827 9.76545603,109.588485 L9.76545603,109.588485 C9.65410648,109.9257 9.68323222,110.294103 9.84615512,110.609225 C10.009078,110.924347 10.2918226,111.159158 10.6295594,111.259817 C10.9602089,111.360701 11.3172546,111.321942 11.6190898,111.152398 C11.920925,110.982854 12.1417495,110.697018 12.2310913,110.360221 L12.2310913,110.346521 Z" id="Shape"></path>
                    <path d="M14.8295747,109 L16.2884819,109.289459 C16.8343369,109.362174 17.3235447,109.642874 17.6397396,110.064788 C17.9559344,110.486702 18.0708553,111.012122 17.9571666,111.516067 L17.9571666,111.516067 C17.8429939,112.021096 17.5104515,112.459602 17.0382711,112.727766 C16.5660907,112.99593 15.9962544,113.06991 15.4636749,112.93219 L14,112.642731 L14.8295747,109 Z M15.3826245,109.721421 L14.8200393,112.206316 L15.592402,112.362178 C15.9482929,112.453941 16.3291365,112.400756 16.6407299,112.215779 C16.9523234,112.030802 17.1655665,111.731307 17.227713,111.391377 L17.227713,111.391377 C17.3178823,111.055708 17.252368,110.700087 17.0472646,110.411876 C16.8421612,110.123664 16.5164766,109.929573 16.1502195,109.877284 L15.3826245,109.721421 Z" id="Shape"></path>
                    <path d="M18,113.797846 C18.3057851,113.797846 18.4710744,113.697003 18.4917355,113.516079 L18.2396694,113.486419 L18.3471074,113 L19,113.077115 L18.9049587,113.486419 C18.9014296,113.643174 18.7999322,113.79049 18.6285177,113.887653 C18.4571033,113.984816 18.2339242,114.021538 18.0206612,113.987668 L18,113.797846 Z" id="Path"></path>
                    <polygon id="Path" points="20.4891847 110 21.21797 110.075472 20.8136439 113.18313 23 113.409545 22.9251248 114 20 113.698113"></polygon>
                    <polygon id="Path" points="24.2932692 111 25 111.051887 24.7067308 115 24 114.95283"></polygon>
                    <polygon id="Path" points="26.0703125 111 29 111.080569 29 111.71564 26.759375 111.658768 26.73125 112.744076 28.71875 112.796209 28.71875 113.43128 26.7359375 113.379147 26.6890625 115 26 115"></polygon>
                    <polygon id="Path" points="30 111.088578 32.9065421 111 32.9065421 111.615385 30.6869159 111.680653 30.7196262 112.69697 32.6869159 112.636364 32.6869159 113.261072 30.7196262 113.317016 30.7523364 114.365967 33 114.296037 33 114.911422 30.0654206 115"></polygon>
                    <path d="M34,114.677966 C34.3675751,114.564972 34.5177114,114.338983 34.4866487,114 L34.1604905,114 L34.0983652,113.067797 L34.9215264,113 L34.9784746,113.79096 C35.0375942,114.08254 34.9734971,114.387678 34.8038979,114.622041 C34.6342988,114.856405 34.3771581,114.995175 34.1035423,115 L34,114.677966 Z" id="Path"></path>
                    <path d="M36,110.217076 L37.5243395,110.039751 C38.0875324,109.931551 38.6739892,110.046523 39.1412433,110.356737 C39.6084974,110.666952 39.913788,111.144019 39.9829516,111.672047 L39.9829516,111.672047 C40.0561658,112.195808 39.8915374,112.72422 39.5281944,113.131692 C39.1648514,113.539164 38.6352395,113.78931 38.0652342,113.822675 L36.5359774,114 L36,110.217076 Z M36.8015075,110.744503 L37.1506305,113.322529 L37.9570552,113.227047 C38.337478,113.207224 38.6908681,113.03885 38.929122,112.763902 C39.167376,112.488955 39.2680446,112.13334 39.2060302,111.785716 L39.2060302,111.785716 C39.1722282,111.433817 38.979577,111.111393 38.6753892,110.897626 C38.3712013,110.683859 37.9836572,110.598554 37.6079323,110.66266 L36.8015075,110.744503 Z" id="Shape"></path>
                    <polygon id="Path" points="41 110.501062 43.3621134 110 43.4587629 110.547771 41.6572165 110.929936 41.8157216 111.842887 43.4162371 111.503185 43.5128866 112.059448 41.9162371 112.399151 42.0786082 113.333333 43.9033505 112.946921 44 113.494692 41.6146907 114"></polygon>
                    <path d="M45.4074823,112.728579 L45.6626345,112.145995 C46.029417,112.372872 46.4613477,112.437879 46.8703553,112.327761 C47.2445786,112.225226 47.4359428,111.959568 47.3679022,111.679928 L47.3679022,111.679928 C47.3041141,111.409609 47.1297601,111.302414 46.449354,111.321056 C45.6668871,111.321056 45.1991079,111.213861 45.0332589,110.514761 L45.0332589,110.514761 C44.8801676,109.866928 45.2671485,109.275022 45.9560596,109.079274 C46.4098329,108.941406 46.8935114,108.984342 47.3211243,109.200452 L47.1127499,109.797017 C46.7917244,109.631648 46.4293869,109.588983 46.0836358,109.67584 C45.7264226,109.773714 45.5690787,110.034712 45.6286142,110.281727 L45.6286142,110.281727 C45.7009074,110.570689 45.888019,110.654581 46.5939403,110.640599 C47.3721547,110.640599 47.8144187,110.808383 47.9632575,111.437573 L47.9632575,111.437573 C48.1291065,112.145995 47.7208628,112.714597 46.9936789,112.919666 C46.4615825,113.073204 45.896444,113.005123 45.4074823,112.728579 L45.4074823,112.728579 Z" id="Path"></path>
                    <polygon id="Path" points="48 108.204033 48.7197943 108 50 111.795967 49.2750643 112"></polygon>
                    <path d="M50.1309781,109.672286 L50.1309781,109.672286 C49.9410012,109.185232 49.9582881,108.643184 50.178925,108.168868 C50.3995618,107.694551 50.8048871,107.328084 51.3031315,107.152438 C51.8047655,106.949187 52.3674211,106.949187 52.8690551,107.152438 L52.6446976,107.77111 C52.2761809,107.623743 51.8639547,107.623743 51.4954379,107.77111 C51.1758318,107.899929 50.9218487,108.149626 50.7902163,108.464431 C50.6585838,108.779236 50.6602681,109.132922 50.7948931,109.446493 L50.7948931,109.446493 C50.8971054,109.788584 51.1400778,110.072727 51.4647116,110.229811 C51.7893454,110.386895 52.1658899,110.402524 52.5027572,110.272895 C52.8152361,110.161598 53.0843306,109.95623 53.2719829,109.685834 L53.0247318,109.022003 L52.1089869,109.360692 L51.9029443,108.809757 L53.4413957,108.249791 L54,109.74454 C53.7156334,110.253908 53.2560785,110.646293 52.7042211,110.850925 C52.2064159,111.058557 51.6428051,111.048916 51.1525994,110.824384 C50.6623936,110.599852 50.2913001,110.181364 50.1309781,109.672286 Z" id="Path"></path>
                    <polygon id="Path" points="54 106.439252 54.4872299 106.172897 57.0530452 107.747664 56.0903733 105.285047 56.6090373 105 58 108.560748 57.5599214 108.803738 54.9194499 107.182243 55.9096267 109.714953 55.3909627 110"></polygon>
                    <polygon id="Path" points="38 69 30 69 30 69.8843488 33.5599343 69.8843488 33.5599343 81 34.4400657 81 34.4400657 69.8843488 38 69.8843488"></polygon>
                    <polygon id="Path" points="13 69 5 69 5 69.8843488 8.55993432 69.8843488 8.55993432 81 9.44444444 81 9.44444444 69.8843488 13 69.8843488"></polygon>
                    <rect id="Rectangle" x="21" y="74" width="4" height="1"></rect>
                    <path d="M46,80.0742734 C43.6282947,79.5852909 41.9238674,77.4679939 41.9238674,75.0107643 C41.9238674,72.5535346 43.6282947,70.4362376 46,69.9472551 L46,69 C43.1139075,69.4919423 41,72.0286314 41,75 C41,77.9713686 43.1139075,80.5080577 46,81 L46,80.0742734 Z" id="Path"></path>
                    <path d="M48,69 L48,69.9386437 C50.3717053,70.4276262 52.0761326,72.5449232 52.0761326,75.0021529 C52.0761326,77.4593825 50.3717053,79.5766795 48,80.065662 L48,81 C50.8860925,80.5080577 53,77.9713686 53,75 C53,72.0286314 50.8860925,69.4919423 48,69 Z" id="Path"></path>
                    <rect id="Rectangle" x="11" y="50" width="37" height="1"></rect>
                    <rect id="Rectangle" x="0" y="50" width="8" height="1"></rect>
                    <rect id="Rectangle" x="51" y="50" width="8" height="1"></rect>
                    <rect id="Rectangle" x="51" y="9" width="8" height="1"></rect>
                    <rect id="Rectangle" x="0" y="9" width="8" height="1"></rect>
                    <rect id="Rectangle" x="11" y="9" width="37" height="1"></rect>
                    <rect id="Rectangle" x="9" y="11" width="1" height="37"></rect>
                    <rect id="Rectangle" x="9" y="0" width="1" height="8"></rect>
                    <rect id="Rectangle" x="9" y="52" width="1" height="8"></rect>
                    <rect id="Rectangle" x="49" y="52" width="1" height="8"></rect>
                    <rect id="Rectangle" x="49" y="11" width="1" height="37"></rect>
                    <rect id="Rectangle" x="49" y="0" width="1" height="8"></rect>
                    <path d="M26,69.8759124 L26,69 L19.1927908,69 C18.5350258,69.0024019 18.0023963,69.536295 18,70.1956204 L18,70.1956204 L18,79.8043796 C18,80.4647025 18.5340306,81 19.1927908,81 L26,81 L26,80.1240876 L18.8782086,80.1240876 L18.8782086,69.8759124 L26,69.8759124 Z" id="Path"></path>
                    <polygon id="Path" points="38 86 30 86 30 86.8843488 33.5599343 86.8843488 33.5599343 98 34.4400657 98 34.4400657 86.8843488 38 86.8843488"></polygon>
                    <polygon id="Path" points="13 86 5 86 5 86.8843488 8.55993432 86.8843488 8.55993432 98 9.44444444 98 9.44444444 86.8843488 13 86.8843488"></polygon>
                    <rect id="Rectangle" x="21" y="91" width="4" height="1"></rect>
                    <path d="M46,97.065662 C43.6282947,96.5766795 41.9238674,94.4593825 41.9238674,92.0021529 C41.9238674,89.5449232 43.6282947,87.4276262 46,86.9386437 L46,86 C43.1139075,86.4919423 41,89.0286314 41,92 C41,94.9713686 43.1139075,97.5080577 46,98 L46,97.065662 Z" id="Path"></path>
                    <path d="M48,86 L48,86.9584527 C50.3717053,87.4465596 52.0761326,89.5600648 52.0761326,92.012894 C52.0761326,94.4657232 50.3717053,96.5792284 48,97.0673352 L48,98 C50.8860925,97.5089386 53,94.9767924 53,92.010745 C53,89.0446976 50.8860925,86.5125513 48,86.02149 L48,86 Z" id="Path"></path>
                    <path d="M26,86.8755928 L26,86 L19.1927908,86 C18.5333245,86.0024117 18,86.5387682 18,87.1995622 L18,87.1995622 L18,96.8048158 C18,97.4648978 18.5340306,98 19.1927908,98 L26,98 L26,97.1244072 L18.8782086,97.1244072 L18.8782086,86.8755928 L26,86.8755928 Z" id="Path"></path>
                </g>
            </g>
        </g>
    </g>
</svg>