<?xml version="1.0" encoding="UTF-8"?>
<svg width="79px" height="63px" viewBox="0 0 79 63" version="1.1" xmlns="http://www.w3.org/2000/svg" xmlns:xlink="http://www.w3.org/1999/xlink">
    <title>Group 5</title>
    <g id="index(take03)" stroke="none" stroke-width="1" fill="none" fill-rule="evenodd">
        <g id="tetoteto_index" transform="translate(-680.000000, -403.000000)" fill="#231815" fill-rule="nonzero">
            <g id="Group-3" transform="translate(680.000000, 310.000000)">
                <g id="Group-5" transform="translate(0.000000, 93.559322)">
                    <g id="Group-4">
                        <polygon id="Path" points="2.11800413 48.8135593 5.42372881 50.5731408 5.08438009 51.3507836 2.56266798 50.032745 1.97758397 51.4035052 4.21845574 52.5963301 3.87910702 53.3937434 1.63823524 52.2009185 0.784012579 54.2372881 0 53.8155158"></polygon>
                        <path d="M5.60921157,53.2682705 L5.60921157,53.2682705 C5.85932918,52.5889682 6.37151624,52.0412334 7.0286107,51.7503596 C7.68570516,51.4594858 8.43148881,51.450359 9.09536468,51.7250668 C9.76966134,51.9650328 10.3178426,52.4725776 10.6131481,53.1303374 C10.9084536,53.7880972 10.9253109,54.5391127 10.6598221,55.2097202 L10.6598221,55.2097202 C10.4099019,55.889017 9.89735111,56.4364671 9.23989804,56.7263261 C8.58244497,57.0161851 7.83659715,57.02354 7.17366897,56.7467013 C6.50090454,56.5066157 5.95393001,56.0000879 5.65876806,55.3438218 C5.3636061,54.6875556 5.34571309,53.938151 5.60921157,53.2682705 L5.60921157,53.2682705 Z M9.76672633,54.8799227 L9.76672633,54.8799227 C9.95436475,54.4350919 9.9554412,53.9324042 9.76970964,53.4867573 C9.58397809,53.0411104 9.22731485,52.6905983 8.78124135,52.5153364 C8.3376309,52.3407961 7.84255268,52.3578593 7.41174753,52.5625367 C6.98094238,52.7672141 6.65217563,53.1415634 6.50230733,53.598068 L6.50230733,53.598068 C6.31466891,54.0428988 6.31359246,54.5455866 6.49932402,54.9912334 C6.68505557,55.4368803 7.04171881,55.7873924 7.48779231,55.9626543 C7.93140276,56.1371946 8.42648098,56.1201315 8.85728612,55.915454 C9.28809127,55.7107766 9.61685803,55.3364273 9.76672633,54.8799227 L9.76672633,54.8799227 Z" id="Shape"></path>
                        <path d="M12.3272745,54.8247121 L12.3272745,54.8247121 C12.5229243,54.1301283 12.9884863,53.5448966 13.6181248,53.2020566 C14.2477633,52.8592167 14.9879822,52.7878974 15.6705087,53.0043116 C16.3612904,53.1853202 16.9486752,53.6436211 17.2962518,54.2727806 C17.6438283,54.9019401 17.7213528,55.647213 17.5108212,56.3355206 L17.5108212,56.3355206 C17.3221427,57.037099 16.8580743,57.6306205 16.225884,57.9788942 C15.5936937,58.327168 14.8481028,58.400048 14.1614525,58.1806883 C13.4660571,57.9989012 12.8754615,57.5361953 12.5284789,56.9013249 C12.1814963,56.2664545 12.1087269,55.5154084 12.3272745,54.8247121 L12.3272745,54.8247121 Z M16.5845306,56.0630797 L16.5845306,56.0630797 C16.7357384,55.6066684 16.6970851,55.1078707 16.4774091,54.6807413 C16.257733,54.2536118 15.8758205,53.934678 15.4189994,53.7968669 C14.9673489,53.6605302 14.4801881,53.7154519 14.0694686,53.9490107 C13.658749,54.1825696 13.3597911,54.5746803 13.2412963,55.0352346 L13.2412963,55.0352346 C13.0903139,55.4924743 13.1298064,55.9920039 13.3507188,56.4192883 C13.5716312,56.8465728 13.9550136,57.1649597 14.4129619,57.3014473 C14.8613001,57.4382388 15.34543,57.3856834 15.7546981,57.1557934 C16.1639661,56.9259034 16.4633892,56.5383292 16.5845306,56.0816552 L16.5845306,56.0630797 Z" id="Shape"></path>
                        <path d="M20.1078979,54.2372881 L22.0860772,54.629775 C22.8262195,54.728372 23.4895522,55.1089811 23.9182909,55.6810683 C24.3470297,56.2531555 24.5028547,56.9655889 24.3487005,57.6489048 L24.3487005,57.6489048 C24.1938901,58.333689 23.7429851,58.9282733 23.1027405,59.2918859 C22.4624958,59.6554986 21.6898365,59.7558102 20.9676948,59.5690714 L18.9830508,59.1765845 L20.1078979,54.2372881 Z M20.8577959,55.2154862 L20.0949686,58.5848351 L21.14224,58.7961741 C21.624804,58.920598 22.141202,58.8484827 22.5637016,58.5976661 C22.9862012,58.3468496 23.2753444,57.9407559 23.3596109,57.4798335 L23.3596109,57.4798335 C23.4818743,57.0246894 23.3930413,56.5424905 23.1149351,56.1516957 C22.8368288,55.7609009 22.3952225,55.4977266 21.8986027,55.4268253 L20.8577959,55.2154862 Z" id="Shape"></path>
                        <path d="M24.4067797,60.742842 C24.8214036,60.742842 25.0455246,60.6061058 25.0735397,60.3607849 L24.7317551,60.3205683 L24.8774338,59.6610169 L25.7627119,59.76558 L25.6338423,60.3205683 C25.6290571,60.5331168 25.4914335,60.7328674 25.2590071,60.8646143 C25.0265807,60.9963613 24.723965,61.0461528 24.4347948,61.0002279 L24.4067797,60.742842 Z" id="Path"></path>
                        <polygon id="Path" points="27.7819453 55.5932203 28.7701289 55.6955548 28.2218901 59.9093286 31.1864407 60.2163321 31.084915 61.0169492 27.1186441 60.6076111"></polygon>
                        <polygon id="Path" points="32.9400261 56.9491525 33.8983051 57.0195075 33.5006519 62.3728814 32.5423729 62.3089223"></polygon>
                        <polygon id="Path" points="35.3495763 56.9491525 39.3220339 57.0583983 39.3220339 57.9195116 36.2838983 57.842397 36.2457627 59.3140011 38.940678 59.3846895 38.940678 60.2458029 36.2521186 60.1751145 36.1885593 62.3728814 35.2542373 62.3728814"></polygon>
                        <polygon id="Path" points="40.6779661 57.0692584 44.6190401 56.9491525 44.6190401 57.7835724 41.6093775 57.8720714 41.6537304 59.2501284 44.3212419 59.1679507 44.3212419 60.0150132 41.6537304 60.0908696 41.6980833 61.5131761 44.7457627 61.4183557 44.7457627 62.2527755 40.7666719 62.3728814"></polygon>
                        <path d="M46.1016949,61.9362252 C46.6001019,61.7830125 46.8036765,61.4765872 46.7615576,61.0169492 L46.3193092,61.0169492 L46.2350714,59.7529446 L47.3512222,59.6610169 L47.4284402,60.7335057 C47.5086023,61.1288684 47.4216909,61.5426141 47.191726,61.8603949 C46.9617611,62.1781756 46.6130957,62.3663388 46.2420912,62.3728814 L46.1016949,61.9362252 Z" id="Path"></path>
                        <path d="M48.8135593,55.8875602 L50.8804603,55.6471201 C51.6441117,55.500408 52.4393074,55.6563023 53.0728722,56.0769319 C53.7064371,56.4975615 54.1203905,57.1444326 54.2141717,57.8604021 L54.2141717,57.8604021 C54.3134452,58.5705876 54.0902202,59.2870785 53.5975517,59.8395828 C53.1048832,60.3920871 52.3867654,60.7312674 51.6138768,60.776509 L49.5403084,61.0169492 L48.8135593,55.8875602 Z M49.9003492,56.6027154 L50.3737362,60.0983446 L51.4671935,59.9688769 C51.983021,59.9419985 52.462194,59.713695 52.7852502,59.3408847 C53.1083064,58.9680743 53.2448062,58.4858848 53.1607189,58.0145304 L53.1607189,58.0145304 C53.1148857,57.5373789 52.8536637,57.1001933 52.4412057,56.8103403 C52.0287476,56.5204874 51.503264,56.4048195 50.9938065,56.491743 L49.9003492,56.6027154 Z" id="Shape"></path>
                        <polygon id="Path" points="55.5932203 56.2726259 58.796086 55.5932203 58.9271361 56.3359603 56.4843613 56.8541509 56.6992836 58.0920508 58.8694741 57.6314369 59.0005242 58.3856922 56.8355757 58.8463061 57.05574 60.1129944 59.5299668 59.589046 59.6610169 60.331786 56.4266993 61.0169492"></polygon>
                        <path d="M61.5694675,59.2929881 L61.9154366,58.5030441 C62.4127689,58.8106743 62.9984376,58.8988195 63.5530241,58.7495066 C64.0604456,58.6104764 64.3199225,58.250262 64.227664,57.8710889 L64.227664,57.8710889 C64.1411717,57.5045548 63.9047594,57.3592051 62.982175,57.3844833 C61.9212028,57.3844833 61.286926,57.2391336 61.062046,56.2912008 L61.062046,56.2912008 C60.8544645,55.4127831 61.3791844,54.6102 62.3133012,54.3447788 C62.928587,54.1578386 63.5844223,54.2160574 64.1642363,54.5090872 L63.8816948,55.3179898 C63.446406,55.0937606 62.9551009,55.0359098 62.4862858,55.1536815 C62.0019289,55.2863921 61.7885813,55.640287 61.8693074,55.9752232 L61.8693074,55.9752232 C61.967332,56.3670355 62.2210428,56.4807874 63.1782242,56.4618287 C64.2334302,56.4618287 64.8331101,56.6893326 65.0349254,57.5424721 L65.0349254,57.5424721 C65.2598054,58.5030441 64.7062547,59.2740294 63.7202425,59.5520897 C62.9987559,59.7602769 62.2324664,59.6679628 61.5694675,59.2929881 L61.5694675,59.2929881 Z" id="Path"></path>
                        <polygon id="Path" points="65.0847458 53.1580111 66.0607381 52.8813559 67.7966102 58.0284295 66.8136465 58.3050847"></polygon>
                        <path d="M67.9742076,55.1488624 L67.9742076,55.1488624 C67.7166117,54.4884496 67.7400516,53.7534698 68.0392203,53.110329 C68.3383889,52.4671883 68.8879825,51.9702837 69.5635681,51.7321188 C70.2437499,51.4565254 71.0066726,51.4565254 71.6868544,51.7321188 L71.3826409,52.5709967 C70.8829571,52.3711768 70.3240063,52.3711768 69.8243226,52.5709967 C69.3909584,52.7456665 69.0465746,53.0842387 68.8680899,53.5110926 C68.6896052,53.9379464 68.691889,54.4175211 68.8744313,54.8427026 L68.8744313,54.8427026 C69.0130242,55.3065541 69.3424784,55.6918337 69.7826598,55.9048288 C70.2228412,56.117824 70.73341,56.139015 71.1901793,55.9632475 C71.6138794,55.8123369 71.9787533,55.5338706 72.2331971,55.167232 L71.8979414,54.2671221 L70.6562535,54.7263618 L70.3768737,53.9793319 L72.4629094,53.2200555 L73.220339,55.2468335 C72.8347571,55.9375023 72.2116318,56.4695503 71.4633506,56.7470166 C70.7883605,57.0285517 70.0241425,57.0154797 69.3594567,56.7110295 C68.694771,56.4065793 68.1915933,55.839138 67.9742076,55.1488624 Z" id="Path"></path>
                        <polygon id="Path" points="73.220339 50.7650879 73.8809896 50.4039284 77.3600613 52.5392048 76.0547434 49.2000634 76.7580167 48.8135593 78.6440678 53.6416917 78.0473511 53.9711706 74.4670507 51.7725329 75.8096633 55.2067163 75.1063901 55.5932203"></polygon>
                        <polygon id="Path" points="51.5254237 0 40.6779661 0 40.6779661 1.19911699 45.5049957 1.19911699 45.5049957 16.2711864 46.6983941 16.2711864 46.6983941 1.19911699 51.5254237 1.19911699"></polygon>
                        <polygon id="Path" points="17.6271186 0 6.77966102 0 6.77966102 1.19911699 11.6066906 1.19911699 11.6066906 16.2711864 12.8060264 16.2711864 12.8060264 1.19911699 17.6271186 1.19911699"></polygon>
                        <rect id="Rectangle" x="28.4745763" y="6.77966102" width="5.42372881" height="1.3559322"></rect>
                        <path d="M62.3728814,15.0159639 C59.1570098,14.3529368 56.845922,11.4820256 56.845922,8.15018883 C56.845922,4.81835202 59.1570098,1.94744087 62.3728814,1.28441371 L62.3728814,0 C58.4595356,0.667040461 55.5932203,4.10661879 55.5932203,8.13559322 C55.5932203,12.1645676 58.4595356,15.604146 62.3728814,16.2711864 L62.3728814,15.0159639 Z" id="Path"></path>
                        <path d="M65.0847458,0 L65.0847458,1.27273722 C68.3006173,1.93576438 70.6117052,4.80667553 70.6117052,8.13851234 C70.6117052,11.4703492 68.3006173,14.3412603 65.0847458,15.0042875 L65.0847458,16.2711864 C68.9980915,15.604146 71.8644068,12.1645676 71.8644068,8.13559322 C71.8644068,4.10661879 68.9980915,0.667040461 65.0847458,0 Z" id="Path"></path>
                    </g>
                    <g id="Group" transform="translate(6.779661, 0.000000)">
                        <path d="M28.4745763,1.18767784 L28.4745763,0 L19.2444621,0 C18.3525773,0.00325686523 17.6303678,0.727179636 17.6271186,1.62118025 L17.6271186,1.62118025 L17.6271186,14.6500062 C17.6271186,15.5453593 18.351228,16.2711864 19.2444621,16.2711864 L28.4745763,16.2711864 L28.4745763,15.0835086 L18.81791,15.0835086 L18.81791,1.18767784 L28.4745763,1.18767784 Z" id="Path"></path>
                        <polygon id="Path" points="44.7457627 23.0508475 33.8983051 23.0508475 33.8983051 24.2499644 38.7253347 24.2499644 38.7253347 39.3220339 39.9187331 39.3220339 39.9187331 24.2499644 44.7457627 24.2499644"></polygon>
                        <polygon id="Path" points="10.8474576 23.0508475 0 23.0508475 0 24.2499644 4.82702958 24.2499644 4.82702958 39.3220339 6.02636535 39.3220339 6.02636535 24.2499644 10.8474576 24.2499644"></polygon>
                        <rect id="Rectangle" x="21.6949153" y="29.8305085" width="5.42372881" height="1.3559322"></rect>
                        <path d="M55.5932203,38.0551349 C52.3773488,37.3921078 50.0662609,34.5211966 50.0662609,31.1893598 C50.0662609,27.857523 52.3773488,24.9866118 55.5932203,24.3235847 L55.5932203,23.0508475 C51.6798746,23.7178879 48.8135593,27.1574663 48.8135593,31.1864407 C48.8135593,35.2154151 51.6798746,38.6549934 55.5932203,39.3220339 L55.5932203,38.0551349 Z" id="Path"></path>
                        <path d="M58.3050847,23.0508475 L58.3050847,24.3504444 C61.5209563,25.0122842 63.8320441,27.878054 63.8320441,31.203924 C63.8320441,34.5297941 61.5209563,37.3955639 58.3050847,38.0574037 L58.3050847,39.3220339 C62.2184305,38.656188 65.0847458,35.2227694 65.0847458,31.2010102 C65.0847458,27.1792509 62.2184305,23.7458323 58.3050847,23.0799864 L58.3050847,23.0508475 Z" id="Path"></path>
                        <path d="M28.4745763,24.238092 L28.4745763,23.0508475 L19.2444621,23.0508475 C18.3502705,23.0541175 17.6271186,23.7813807 17.6271186,24.6773725 L17.6271186,24.6773725 L17.6271186,37.7014451 C17.6271186,38.5964716 18.351228,39.3220339 19.2444621,39.3220339 L28.4745763,39.3220339 L28.4745763,38.1347894 L18.81791,38.1347894 L18.81791,24.238092 L28.4745763,24.238092 Z" id="Path"></path>
                    </g>
                </g>
            </g>
        </g>
    </g>
</svg>