<?xml version="1.0" encoding="UTF-8"?>
<svg width="137px" height="265px" viewBox="0 0 137 265" version="1.1" xmlns="http://www.w3.org/2000/svg" xmlns:xlink="http://www.w3.org/1999/xlink">
    <title>アセット 1</title>
    <g id="index(take03)" stroke="none" stroke-width="1" fill="none" fill-rule="evenodd">
        <g id="tetoteto_index" transform="translate(-1111.000000, -5.000000)" fill-rule="nonzero">
            <g id="HEADER" transform="translate(1111.000000, 0.000000)">
                <g id="アセット-1" transform="translate(0.000000, 5.000000)">
                    <polygon id="Path" fill="#231815" points="4.62 240.15 10.27 242.82 9.69 244 5.38 242 4.38 244.08 8.21 245.89 7.63 247.1 3.8 245.29 2.34 248.38 1 247.74"></polygon>
                    <path d="M10.56,247.58 L10.56,247.58 C10.9660825,246.48833 11.797652,245.608094 12.8644883,245.140647 C13.9313246,244.673199 15.1421536,244.658532 16.22,245.1 C17.3147652,245.485637 18.2047737,246.301285 18.6842217,247.358335 C19.1636697,248.415386 19.1910387,249.622302 18.76,250.7 L18.76,250.7 C18.354238,251.791662 17.522078,252.671439 16.4546595,253.137256 C15.3872409,253.603073 14.1763077,253.614893 13.1,253.17 C12.0077225,252.784171 11.1196732,251.970158 10.6404582,250.915507 C10.1612433,249.860857 10.1321928,248.656529 10.56,247.58 L10.56,247.58 Z M17.31,250.17 L17.31,250.17 C17.6146434,249.455136 17.6163911,248.647294 17.3148436,247.931118 C17.0132962,247.214943 16.4342298,246.651654 15.71,246.37 C14.9897691,246.089506 14.1859769,246.116927 13.4865363,246.445853 C12.7870956,246.774779 12.2533211,247.376376 12.01,248.11 L12.01,248.11 C11.7053566,248.824864 11.7036089,249.632706 12.0051564,250.348882 C12.3067038,251.065057 12.8857702,251.628346 13.61,251.91 C14.3302309,252.190494 15.1340231,252.163073 15.8334637,251.834147 C16.5329044,251.505221 17.0666789,250.903624 17.31,250.17 L17.31,250.17 Z" id="Shape" fill="#231815"></path>
                    <path d="M21.31,251.58 L21.31,251.58 C21.6289402,250.458227 22.3878797,249.51306 23.4142899,248.959364 C24.4407001,248.405667 25.6473739,248.290485 26.76,248.64 C27.8860832,248.932334 28.8436133,249.672503 29.410218,250.688615 C29.9768227,251.704726 30.1031997,252.908363 29.76,254.02 L29.76,254.02 C29.4524243,255.15307 28.6959195,256.111624 27.6653494,256.674097 C26.6347794,257.236569 25.4193484,257.354272 24.3,257 C23.1663956,256.706408 22.2036314,255.959125 21.6379949,254.933791 C21.0723585,253.908456 20.953733,252.695495 21.31,251.58 L21.31,251.58 Z M28.25,253.58 L28.25,253.58 C28.4964927,252.842882 28.4334817,252.037309 28.075375,251.347483 C27.7172683,250.657656 27.0946907,250.142569 26.35,249.92 C25.6137383,249.699812 24.8195894,249.788512 24.1500517,250.165717 C23.4805139,250.542921 22.9931652,251.176191 22.8,251.92 L22.8,251.92 C22.5538748,252.658455 22.6182538,253.46521 22.978376,254.155287 C23.3384981,254.845364 23.963472,255.359568 24.71,255.58 C25.4408622,255.800922 26.2300703,255.716044 26.8972419,255.344765 C27.5644135,254.973486 28.0525204,254.347542 28.25,253.61 L28.25,253.58 Z" id="Shape" fill="#231815"></path>
                    <path d="M33.59,250.63 L36.65,251.28 C37.7949092,251.443287 38.8210032,252.073616 39.4842093,253.021053 C40.1474154,253.968491 40.3884575,255.148356 40.15,256.28 L40.15,256.28 C39.9105273,257.414075 39.2130328,258.39877 38.2226531,259.000951 C37.2322733,259.603133 36.0370644,259.769259 34.92,259.46 L31.85,258.81 L33.59,250.63 Z M34.75,252.25 L33.57,257.83 L35.19,258.18 C35.9364672,258.386059 36.7352714,258.266628 37.3888263,257.85125 C38.0423811,257.435871 38.4896501,256.763336 38.62,256 L38.62,256 C38.8091264,255.246233 38.6717128,254.44766 38.2415166,253.800462 C37.8113204,253.153265 37.1282098,252.71742 36.36,252.6 L34.75,252.25 Z" id="Shape" fill="#231815"></path>
                    <path d="M41.42,261.89 C42.16,261.89 42.56,261.55 42.61,260.94 L42,260.84 L42.26,259.2 L43.84,259.46 L43.61,260.84 C43.6014596,261.36851 43.355836,261.865198 42.941013,262.192792 C42.5261899,262.520385 41.9860966,262.644194 41.47,262.53 L41.42,261.89 Z" id="Path" fill="#231815"></path>
                    <polygon id="Path" fill="#231815" points="47.82 253.24 49.28 253.41 48.47 260.41 52.85 260.92 52.7 262.25 46.84 261.57"></polygon>
                    <polygon id="Path" fill="#231815" points="56.33 254.12 57.8 254.23 57.19 262.6 55.72 262.5"></polygon>
                    <polygon id="Path" fill="#231815" points="61.07 254.43 67.32 254.6 67.32 255.94 62.54 255.82 62.48 258.11 66.72 258.22 66.72 259.56 62.49 259.45 62.39 262.87 60.92 262.87"></polygon>
                    <polygon id="Path" fill="#231815" points="70 254.59 76.22 254.4 76.22 255.72 71.47 255.86 71.54 258.04 75.75 257.91 75.75 259.25 71.54 259.37 71.61 261.62 76.42 261.47 76.42 262.79 70.14 262.98"></polygon>
                    <path d="M79.58,263.7 C80.29,263.5 80.58,263.1 80.52,262.5 L79.89,262.5 L79.77,260.85 L81.36,260.73 L81.47,262.13 C81.5841941,262.646097 81.4603855,263.18619 81.1327915,263.601013 C80.8051976,264.015836 80.3085102,264.26146 79.78,264.27 L79.58,263.7 Z" id="Path" fill="#231815"></path>
                    <path d="M83.53,253.84 L86.63,253.45 C87.7753472,253.212029 88.9680054,253.464894 89.918245,254.147166 C90.8684845,254.829438 91.4893442,255.878679 91.63,257.04 L91.63,257.04 C91.7788934,258.191939 91.4440939,259.354106 90.7051749,260.250282 C89.966256,261.146458 88.8892013,261.696617 87.73,261.77 L84.62,262.16 L83.53,253.84 Z M85.16,255 L85.87,260.67 L87.51,260.46 C88.2836534,260.416403 89.0023315,260.046089 89.4868608,259.441381 C89.9713902,258.836673 90.1761167,258.054549 90.05,257.29 L90.05,257.29 C89.981258,256.516048 89.5894695,255.806922 88.9708525,255.336773 C88.3522355,254.866624 87.5640996,254.679008 86.8,254.82 L85.16,255 Z" id="Shape" fill="#231815"></path>
                    <polygon id="Path" fill="#231815" points="93.8 252.43 99.91 251.25 100.16 252.54 95.5 253.44 95.91 255.59 100.05 254.79 100.3 256.1 96.17 256.9 96.59 259.1 101.31 258.19 101.56 259.48 95.39 260.67"></polygon>
                    <path d="M103.88,257.71 L104.48,256.46 C105.342503,256.946791 106.358204,257.086271 107.32,256.85 C108.2,256.63 108.65,256.06 108.49,255.46 L108.49,255.46 C108.34,254.88 107.93,254.65 106.33,254.69 C104.49,254.69 103.39,254.46 103,252.96 L103,252.96 C102.64,251.57 103.55,250.3 105.17,249.88 C106.237065,249.584188 107.374453,249.676312 108.38,250.14 L107.89,251.42 C107.135097,251.065182 106.283047,250.973639 105.47,251.16 C104.63,251.37 104.26,251.93 104.4,252.46 L104.4,252.46 C104.57,253.08 105.01,253.26 106.67,253.23 C108.5,253.23 109.54,253.59 109.89,254.94 L109.89,254.94 C110.28,256.46 109.32,257.68 107.61,258.12 C106.358756,258.449433 105.029812,258.303357 103.88,257.71 L103.88,257.71 Z" id="Path" fill="#231815"></path>
                    <polygon id="Path" fill="#231815" points="111.14 248.29 112.54 247.86 115.03 255.86 113.62 256.29"></polygon>
                    <path d="M116.33,251.11 L116.33,251.11 C115.915088,250.031457 115.952843,248.831137 116.434717,247.780802 C116.916591,246.730467 117.801827,245.918955 118.89,245.53 C119.985576,245.079919 121.214424,245.079919 122.31,245.53 L121.82,246.9 C121.015154,246.573667 120.114846,246.573667 119.31,246.9 C118.611976,247.185259 118.057273,247.738193 117.769786,248.435302 C117.482299,249.132412 117.485977,249.915622 117.78,250.61 L117.78,250.61 C118.003233,251.367532 118.533888,251.996745 119.242893,252.344594 C119.951898,252.692439 120.774277,252.727052 121.51,252.44 C122.192458,252.193543 122.780165,251.73877 123.19,251.14 L122.65,249.67 L120.65,250.42 L120.2,249.2 L123.56,247.96 L124.78,251.27 C124.158939,252.397955 123.155265,253.26686 121.95,253.72 C120.862786,254.179784 119.631852,254.158436 118.561236,253.661228 C117.490619,253.16402 116.680146,252.237312 116.33,251.11 Z" id="Path" fill="#231815"></path>
                    <polygon id="Path" fill="#231815" points="124.86 243.33 126.1 242.76 132.63 246.13 130.18 240.86 131.5 240.25 135.04 247.87 133.92 248.39 127.2 244.92 129.72 250.34 128.4 250.95"></polygon>
                    <polygon id="Path" fill="#231815" points="88.33 157.25 70.06 157.25 70.06 159.27 78.19 159.27 78.19 184.66 80.2 184.66 80.2 159.27 88.33 159.27"></polygon>
                    <polygon id="Path" fill="#231815" points="30.73 157.25 12.46 157.25 12.46 159.27 20.59 159.27 20.59 184.66 22.61 184.66 22.61 159.27 30.73 159.27"></polygon>
                    <rect id="Rectangle" fill="#231815" x="48.66" y="169.95" width="9.15" height="2.01"></rect>
                    <path d="M106.55,182.72 C100.957222,181.584338 96.9379698,176.666916 96.9379698,170.96 C96.9379698,165.253084 100.957222,160.335662 106.55,159.2 L106.55,157 C99.7442331,158.142536 94.7593749,164.033996 94.7593749,170.935 C94.7593749,177.836004 99.7442331,183.727464 106.55,184.87 L106.55,182.72 Z" id="Path" fill="#231815"></path>
                    <path d="M111.27,157 L111.27,159.18 C116.862778,160.315662 120.88203,165.233084 120.88203,170.94 C120.88203,176.646916 116.862778,181.564338 111.27,182.7 L111.27,184.87 C118.075767,183.727464 123.060625,177.836004 123.060625,170.935 C123.060625,164.033996 118.075767,158.142536 111.27,157 Z" id="Path" fill="#231815"></path>
                    <rect id="Rectangle" fill="#45B035" x="25.01" y="113.42" width="86.05" height="2.09"></rect>
                    <rect id="Rectangle" fill="#45B035" x="0" y="113.42" width="18.18" height="2.09"></rect>
                    <rect id="Rectangle" fill="#45B035" x="117.88" y="113.42" width="18.18" height="2.09"></rect>
                    <rect id="Rectangle" fill="#E60012" x="117.88" y="20.55" width="18.18" height="2.09"></rect>
                    <rect id="Rectangle" fill="#E60012" x="0" y="20.55" width="18.18" height="2.09"></rect>
                    <rect id="Rectangle" fill="#E60012" x="25.01" y="20.55" width="86.05" height="2.09"></rect>
                    <rect id="Rectangle" fill="#0068B7" x="20.55" y="25.01" width="2.09" height="86.05"></rect>
                    <rect id="Rectangle" fill="#0068B7" x="20.55" y="0" width="2.09" height="18.18"></rect>
                    <rect id="Rectangle" fill="#0068B7" x="20.55" y="117.88" width="2.09" height="18.18"></rect>
                    <rect id="Rectangle" fill="#E3CE00" x="113.42" y="117.88" width="2.09" height="18.18"></rect>
                    <rect id="Rectangle" fill="#E3CE00" x="113.42" y="25.01" width="2.09" height="86.05"></rect>
                    <rect id="Rectangle" fill="#E3CE00" x="113.42" y="0" width="2.09" height="18.18"></rect>
                    <path d="M60,159.27 L60,157.27 L44.42,157.27 C42.9145402,157.275484 41.6954844,158.49454 41.69,160 L41.69,160 L41.69,181.94 C41.69,183.447737 42.9122626,184.67 44.42,184.67 L60,184.67 L60,182.67 L43.7,182.67 L43.7,159.27 L60,159.27 Z" id="Path" fill="#231815"></path>
                    <polygon id="Path" fill="#231815" points="88.33 196 70.06 196 70.06 198.02 78.19 198.02 78.19 223.41 80.2 223.41 80.2 198.02 88.33 198.02"></polygon>
                    <polygon id="Path" fill="#231815" points="30.73 196 12.46 196 12.46 198.02 20.59 198.02 20.59 223.41 22.61 223.41 22.61 198.02 30.73 198.02"></polygon>
                    <rect id="Rectangle" fill="#231815" x="48.66" y="208.7" width="9.15" height="2.01"></rect>
                    <path d="M106.55,221.47 C100.957222,220.334338 96.9379698,215.416916 96.9379698,209.71 C96.9379698,204.003084 100.957222,199.085662 106.55,197.95 L106.55,195.77 C99.7442331,196.912536 94.7593749,202.803996 94.7593749,209.705 C94.7593749,216.606004 99.7442331,222.497464 106.55,223.64 L106.55,221.47 Z" id="Path" fill="#231815"></path>
                    <path d="M111.27,195.77 L111.27,198 C116.862778,199.135662 120.88203,204.053084 120.88203,209.76 C120.88203,215.466916 116.862778,220.384338 111.27,221.52 L111.27,223.69 C118.075767,222.547464 123.060625,216.656004 123.060625,209.755 C123.060625,202.853996 118.075767,196.962536 111.27,195.82 L111.27,195.77 Z" id="Path" fill="#231815"></path>
                    <path d="M60,198 L60,196 L44.42,196 C42.9106465,196.005509 41.69,197.230636 41.69,198.74 L41.69,198.74 L41.69,220.68 C41.69,222.187737 42.9122626,223.41 44.42,223.41 L60,223.41 L60,221.41 L43.7,221.41 L43.7,198 L60,198 Z" id="Path" fill="#231815"></path>
                </g>
            </g>
        </g>
    </g>
</svg>